<svg version="1.1" id="Layer_1" xmlns="http://www.w3.org/2000/svg" xmlns:xlink="http://www.w3.org/1999/xlink" x="0px" y="0px"
	 width="100%" viewBox="0 0 624 728" enable-background="new 0 0 624 728" xml:space="preserve">
<path fill="#000000" opacity="1.000000" stroke="none" 
	d="
M333.000000,729.000000 
	C222.000000,729.000000 111.500000,729.000000 1.000000,729.000000 
	C1.000000,486.333344 1.000000,243.666672 1.000000,1.000000 
	C209.000000,1.000000 417.000000,1.000000 625.000000,1.000000 
	C625.000000,243.666672 625.000000,486.333344 625.000000,729.000000 
	C527.833313,729.000000 430.666656,729.000000 333.000000,729.000000 
M120.843628,21.000643 
	C119.625122,21.137074 118.406624,21.273506 117.341606,21.392754 
	C127.217262,111.326508 137.049774,200.867447 146.919189,290.744324 
	C142.384460,291.568573 138.043716,292.254059 133.748260,293.155457 
	C108.668159,298.418427 83.591751,303.699646 58.532913,309.062683 
	C54.672947,309.888763 50.886848,310.199799 48.821957,315.091248 
	C41.765957,331.805939 34.071949,348.251099 26.641653,364.808197 
	C24.651037,369.243927 22.732698,373.712097 20.240753,379.398590 
	C65.355743,370.088623 109.362625,361.007294 153.599533,351.878479 
	C156.305130,376.281433 158.975540,400.366852 161.674332,424.708435 
	C160.511307,425.124786 159.335022,425.700531 158.092453,425.966461 
	C147.718002,428.186646 137.335709,430.370789 126.947495,432.525879 
	C105.208488,437.035797 83.451469,441.460144 61.731674,446.060486 
	C56.422798,447.184937 51.015991,447.319458 48.190868,454.107880 
	C40.716808,472.067047 32.288700,489.628235 24.314734,507.381256 
	C22.985758,510.340027 22.030510,513.466675 20.763304,516.892151 
	C70.566170,506.617523 119.422859,496.538055 168.427017,486.428192 
	C176.657806,561.229248 184.781723,635.059021 192.917419,708.995789 
	C231.654160,708.995789 269.474060,709.023376 307.293213,708.874756 
	C308.546875,708.869812 310.411743,707.342712 310.952179,706.080200 
	C322.005859,680.256104 332.904114,654.365479 343.841003,628.491394 
	C356.749084,597.953979 369.699890,567.434631 382.567078,536.879944 
	C396.573395,503.620453 410.602264,470.369385 424.303497,436.984192 
	C425.536255,433.980347 427.267670,432.840973 429.724670,432.218323 
	C433.519104,431.256653 437.433716,430.780579 441.275818,429.993591 
	C463.195038,425.503845 485.106537,420.976471 507.023254,416.474609 
	C528.938782,411.972961 550.874207,407.564789 572.745544,402.858063 
	C574.696350,402.438232 577.004883,400.471588 577.845703,398.629272 
	C582.864136,387.634796 587.488647,376.460815 592.267822,365.356781 
	C596.838196,354.737854 601.436096,344.130829 606.564819,332.262146 
	C555.501282,342.922333 505.508911,353.358887 455.215973,363.858215 
	C466.815887,336.317322 478.214020,309.255524 489.644684,282.116486 
	C490.682098,282.061462 491.696503,282.134125 492.656158,281.938293 
	C517.139343,276.943665 541.643860,272.046478 566.072571,266.796875 
	C570.957153,265.747192 576.532104,266.124817 579.093750,259.330078 
	C584.389160,245.283981 590.727051,231.631409 596.616699,217.808701 
	C599.775635,210.394836 602.894043,202.963654 606.399353,194.667892 
	C576.756165,200.861343 548.098938,206.848801 518.736694,212.983551 
	C544.669189,151.405365 570.344788,90.437157 596.217896,28.999905 
	C593.711731,28.999905 591.887939,28.999905 590.064148,28.999905 
	C565.232727,28.999899 540.401306,28.987083 515.569885,29.011293 
	C510.914032,29.015833 505.194458,27.554348 501.910065,29.719223 
	C498.798401,31.770216 498.209229,37.683067 496.563843,41.918205 
	C484.390930,73.251022 472.180420,104.569397 460.081818,135.930923 
	C448.043274,167.136719 436.171356,198.406967 424.021973,229.569290 
	C423.305725,231.406403 420.975922,233.333923 419.037292,233.839249 
	C413.359009,235.319305 407.467590,235.954880 401.715393,237.182388 
	C377.295715,242.393463 352.910767,247.767456 328.485229,252.950562 
	C304.852356,257.965424 281.188690,262.835541 257.530853,267.732208 
	C251.861511,268.905640 246.161758,269.932281 240.127258,271.093567 
	C239.353607,261.970428 238.733566,253.443222 237.884644,244.938873 
	C236.677826,232.848999 235.246994,220.781555 234.019455,208.693619 
	C233.221130,200.832443 232.690231,192.944244 231.904053,185.081696 
	C230.662155,172.661743 229.269943,160.256866 228.012726,147.838379 
	C227.250290,140.307114 226.712830,132.752625 225.913025,125.225693 
	C224.681641,113.637238 223.214874,102.073380 222.033112,90.480217 
	C221.181396,82.124947 220.723587,73.730118 219.924698,65.368736 
	C218.690002,52.446453 217.150513,39.551022 216.094193,26.615307 
	C215.762650,22.555159 214.734619,20.874531 210.268875,20.902979 
	C180.772354,21.090885 151.274048,21.000090 120.843628,21.000643 
z"/>
<path fill="#AA9245" opacity="1.000000" stroke="none" 
	d="
M121.309975,21.000366 
	C151.274048,21.000090 180.772354,21.090885 210.268875,20.902979 
	C214.734619,20.874531 215.762650,22.555159 216.094193,26.615307 
	C217.150513,39.551022 218.690002,52.446453 219.924698,65.368736 
	C220.723587,73.730118 221.181396,82.124947 222.033112,90.480217 
	C223.214874,102.073380 224.681641,113.637238 225.913025,125.225693 
	C226.712830,132.752625 227.250290,140.307114 228.012726,147.838379 
	C229.269943,160.256866 230.662155,172.661743 231.904053,185.081696 
	C232.690231,192.944244 233.221130,200.832443 234.019455,208.693619 
	C235.246994,220.781555 236.677826,232.848999 237.884644,244.938873 
	C238.733566,253.443222 239.353607,261.970428 240.127258,271.093567 
	C246.161758,269.932281 251.861511,268.905640 257.530853,267.732208 
	C281.188690,262.835541 304.852356,257.965424 328.485229,252.950562 
	C352.910767,247.767456 377.295715,242.393463 401.715393,237.182388 
	C407.467590,235.954880 413.359009,235.319305 419.037292,233.839249 
	C420.975922,233.333923 423.305725,231.406403 424.021973,229.569290 
	C436.171356,198.406967 448.043274,167.136719 460.081818,135.930923 
	C472.180420,104.569397 484.390930,73.251022 496.563843,41.918205 
	C498.209229,37.683067 498.798401,31.770216 501.910065,29.719223 
	C505.194458,27.554348 510.914032,29.015833 515.569885,29.011293 
	C540.401306,28.987083 565.232727,28.999899 590.064148,28.999905 
	C591.887939,28.999905 593.711731,28.999905 596.217896,28.999905 
	C570.344788,90.437157 544.669189,151.405365 518.736694,212.983551 
	C548.098938,206.848801 576.756165,200.861343 606.399353,194.667892 
	C602.894043,202.963654 599.775635,210.394836 596.616699,217.808701 
	C590.727051,231.631409 584.389160,245.283981 579.093750,259.330078 
	C576.532104,266.124817 570.957153,265.747192 566.072571,266.796875 
	C541.643860,272.046478 517.139343,276.943665 492.656158,281.938293 
	C491.696503,282.134125 490.682098,282.061462 489.644684,282.116486 
	C478.214020,309.255524 466.815887,336.317322 455.215973,363.858215 
	C505.508911,353.358887 555.501282,342.922333 606.564819,332.262146 
	C601.436096,344.130829 596.838196,354.737854 592.267822,365.356781 
	C587.488647,376.460815 582.864136,387.634796 577.845703,398.629272 
	C577.004883,400.471588 574.696350,402.438232 572.745544,402.858063 
	C550.874207,407.564789 528.938782,411.972961 507.023254,416.474609 
	C485.106537,420.976471 463.195038,425.503845 441.275818,429.993591 
	C437.433716,430.780579 433.519104,431.256653 429.724670,432.218323 
	C427.267670,432.840973 425.536255,433.980347 424.303497,436.984192 
	C410.602264,470.369385 396.573395,503.620453 382.567078,536.879944 
	C369.699890,567.434631 356.749084,597.953979 343.841003,628.491394 
	C332.904114,654.365479 322.005859,680.256104 310.952179,706.080200 
	C310.411743,707.342712 308.546875,708.869812 307.293213,708.874756 
	C269.474060,709.023376 231.654160,708.995789 192.917419,708.995789 
	C184.781723,635.059021 176.657806,561.229248 168.427017,486.428192 
	C119.422859,496.538055 70.566170,506.617523 20.763304,516.892151 
	C22.030510,513.466675 22.985758,510.340027 24.314734,507.381256 
	C32.288700,489.628235 40.716808,472.067047 48.190868,454.107880 
	C51.015991,447.319458 56.422798,447.184937 61.731674,446.060486 
	C83.451469,441.460144 105.208488,437.035797 126.947495,432.525879 
	C137.335709,430.370789 147.718002,428.186646 158.092453,425.966461 
	C159.335022,425.700531 160.511307,425.124786 161.674332,424.708435 
	C158.975540,400.366852 156.305130,376.281433 153.599533,351.878479 
	C109.362625,361.007294 65.355743,370.088623 20.240753,379.398590 
	C22.732698,373.712097 24.651037,369.243927 26.641653,364.808197 
	C34.071949,348.251099 41.765957,331.805939 48.821957,315.091248 
	C50.886848,310.199799 54.672947,309.888763 58.532913,309.062683 
	C83.591751,303.699646 108.668159,298.418427 133.748260,293.155457 
	C138.043716,292.254059 142.384460,291.568573 146.919189,290.744324 
	C137.049774,200.867447 127.217262,111.326508 117.341606,21.392754 
	C118.406624,21.273506 119.625122,21.137074 121.309975,21.000366 
M385.092346,331.716858 
	C388.875153,322.012085 392.657990,312.307343 396.817200,301.636902 
	C345.703064,312.185608 296.201508,322.401520 246.383911,332.682678 
	C248.847443,357.277588 251.284698,381.610138 253.718277,405.905884 
	C264.788879,403.684204 274.714355,401.776459 284.602509,399.691620 
	C310.786469,394.170929 336.963013,388.613770 363.105194,382.900330 
	C364.573639,382.579407 366.334961,380.967438 366.897919,379.538086 
	C373.054077,363.906830 378.998596,348.192200 385.092346,331.716858 
M286.926117,589.182739 
	C291.744507,576.187927 296.469727,563.157654 301.399780,550.205383 
	C313.235504,519.110474 325.168579,488.052643 337.057037,456.977844 
	C337.756195,455.150208 338.408020,453.304474 339.202759,451.137512 
	C312.322052,456.685638 286.312195,462.053986 260.005402,467.483643 
	C261.039032,479.417816 261.936493,491.202087 263.108704,502.958984 
	C264.623779,518.154785 266.432220,533.321167 267.973663,548.514526 
	C269.102356,559.639709 269.984650,570.789734 271.045074,581.922241 
	C271.130798,582.821899 271.507843,583.956177 272.154633,584.497314 
	C276.250305,587.924133 280.460144,591.214539 284.509857,594.451965 
	C285.252808,592.828125 285.927887,591.352600 286.926117,589.182739 
z"/>
<path fill="#000000" opacity="1.000000" stroke="none" 
	d="
M385.046509,332.108551 
	C378.998596,348.192200 373.054077,363.906830 366.897919,379.538086 
	C366.334961,380.967438 364.573639,382.579407 363.105194,382.900330 
	C336.963013,388.613770 310.786469,394.170929 284.602509,399.691620 
	C274.714355,401.776459 264.788879,403.684204 253.718277,405.905884 
	C251.284698,381.610138 248.847443,357.277588 246.383911,332.682678 
	C296.201508,322.401520 345.703064,312.185608 396.817200,301.636902 
	C392.657990,312.307343 388.875153,322.012085 385.046509,332.108551 
z"/>
<path fill="#000000" opacity="1.000000" stroke="none" 
	d="
M286.764557,589.529907 
	C285.927887,591.352600 285.252808,592.828125 284.509857,594.451965 
	C280.460144,591.214539 276.250305,587.924133 272.154633,584.497314 
	C271.507843,583.956177 271.130798,582.821899 271.045074,581.922241 
	C269.984650,570.789734 269.102356,559.639709 267.973663,548.514526 
	C266.432220,533.321167 264.623779,518.154785 263.108704,502.958984 
	C261.936493,491.202087 261.039032,479.417816 260.005402,467.483643 
	C286.312195,462.053986 312.322052,456.685638 339.202759,451.137512 
	C338.408020,453.304474 337.756195,455.150208 337.057037,456.977844 
	C325.168579,488.052643 313.235504,519.110474 301.399780,550.205383 
	C296.469727,563.157654 291.744507,576.187927 286.764557,589.529907 
z"/>
</svg>